{
    "asset" : {
        "generator" : "Khronos glTF Blender I/O v1.1.46",
        "version" : "2.0"
    },
    "scene" : 0,
    "scenes" : [
        {
            "name" : "Scene",
            "nodes" : [
                0
            ]
        }
    ],
    "nodes" : [
        {
            "mesh" : 0,
            "name" : "CoffeeCup_Cup"
        }
    ],
    "materials" : [
        {
            "doubleSided" : true,
            "emissiveFactor" : [
                0,
                0,
                0
            ],
            "name" : "CoffeeCup_Glass",
            "pbrMetallicRoughness" : {
                "baseColorFactor" : [
                    1,
                    1,
                    1,
                    1
                ],
                "metallicFactor" : 0,
                "roughnessFactor" : 0
            }
        }
    ],
    "meshes" : [
        {
            "name" : "Cylinder.001",
            "primitives" : [
                {
                    "attributes" : {
                        "POSITION" : 0,
                        "NORMAL" : 1,
                        "TEXCOORD_0" : 2
                    },
                    "indices" : 3,
                    "material" : 0
                }
            ]
        }
    ],
    "accessors" : [
        {
            "bufferView" : 0,
            "componentType" : 5126,
            "count" : 3519,
            "max" : [
                0.10825111716985703,
                0.05849716439843178,
                0.06914957612752914
            ],
            "min" : [
                -0.06914956867694855,
                -0.03992249071598053,
                -0.06914957612752914
            ],
            "type" : "VEC3"
        },
        {
            "bufferView" : 1,
            "componentType" : 5126,
            "count" : 3519,
            "type" : "VEC3"
        },
        {
            "bufferView" : 2,
            "componentType" : 5126,
            "count" : 3519,
            "type" : "VEC2"
        },
        {
            "bufferView" : 3,
            "componentType" : 5123,
            "count" : 17136,
            "type" : "SCALAR"
        }
    ],
    "bufferViews" : [
        {
            "buffer" : 0,
            "byteLength" : 42228,
            "byteOffset" : 0
        },
        {
            "buffer" : 0,
            "byteLength" : 42228,
            "byteOffset" : 42228
        },
        {
            "buffer" : 0,
            "byteLength" : 28152,
            "byteOffset" : 84456
        },
        {
            "buffer" : 0,
            "byteLength" : 34272,
            "byteOffset" : 112608
        }
    ],
    "buffers" : [
        {
            "byteLength" : 146880,
            "uri" : "data:application/octet-stream;base64,"
        }
    ]
}
