# Blender v2.83.4 OBJ File: 'heart.blend'
# www.blender.org
mtllib heart.mtl
o Plane
v -1.010315 0.592838 -0.006011
v -0.953143 0.181337 0.000000
v -0.893673 0.797355 0.000000
v -0.220715 0.645599 -0.000000
v -0.661747 -0.393581 0.000000
v -0.031701 0.322700 -0.000000
v -0.291595 -0.803111 -0.000000
v -0.006626 0.205975 -0.000000
v 0.035679 -0.949684 -0.000000
v 0.025194 0.087524 -0.000000
v 0.347421 -0.812955 -0.000000
v 0.056282 0.208062 -0.000000
v 0.678710 -0.450096 0.000000
v 0.119347 0.353311 -0.000000
v 0.990789 0.143741 0.000000
v 0.288891 0.588485 -0.000000
v 1.007522 0.681853 0.000000
v 0.708016 0.905539 -0.027204
v -1.001727 0.392752 0.000000
v -0.539845 0.909005 0.000000
v 1.040434 0.397685 0.000000
v 0.480586 0.858868 0.000000
v -0.781293 0.845242 0.414099
v -1.019809 0.582075 0.451076
v -1.001727 0.392752 0.465117
v -0.953143 0.181337 0.465117
v -0.220715 0.645599 0.465117
v -0.539845 0.909005 0.465117
v -0.661747 -0.393581 0.465117
v -0.031701 0.322700 0.465117
v -0.291595 -0.803111 0.465117
v -0.006626 0.205975 0.465117
v 0.035679 -0.949684 0.465117
v 0.025194 0.087524 0.465117
v 0.347421 -0.812955 0.465117
v 0.056282 0.208062 0.465117
v 0.678710 -0.450096 0.465117
v 0.119347 0.353311 0.465117
v 0.990789 0.143741 0.465117
v 0.288891 0.588485 0.465117
v 1.007522 0.681853 0.465117
v 0.825250 0.918249 0.465117
v 1.040434 0.397685 0.465117
v 0.480586 0.858868 0.465117
v -0.941492 0.720956 0.018533
v -0.840675 0.371808 -0.070646
v -0.567577 -0.158069 -0.070646
v -0.259096 -0.515269 -0.070646
v 0.015375 -0.656817 -0.070646
v 0.276958 -0.522981 -0.070646
v 0.560311 -0.199014 -0.070646
v 0.846916 0.330724 -0.070646
v 0.901608 0.821575 -0.077287
v -0.937611 0.592515 -0.070646
v 0.921948 0.587605 -0.070646
v -0.938015 0.749656 0.438997
v -0.791691 0.348752 0.591390
v -0.518592 -0.181125 0.591390
v -0.210112 -0.538326 0.591390
v 0.064359 -0.679873 0.591389
v 0.325943 -0.546037 0.591390
v 0.609295 -0.222070 0.591390
v 0.895900 0.307667 0.591390
v 0.911494 0.825539 0.553513
v -0.888626 0.569459 0.591390
v 0.970932 0.564549 0.591390
v -0.501058 0.504609 -0.073098
v -0.279989 0.125483 -0.065988
v -0.179774 -0.088772 -0.042862
v -0.028156 -0.225277 -0.087924
v 0.078000 -0.109990 -0.085566
v 0.217810 0.124986 -0.069085
v 0.438122 0.448015 -0.049049
v 0.845809 0.878557 -0.039907
v -0.751285 0.753515 -0.060989
v 0.539509 0.727032 -0.024316
v -0.466722 0.507598 0.570323
v -0.247852 0.111209 0.570323
v -0.122151 -0.090901 0.570323
v -0.004174 -0.217552 0.570323
v 0.054240 -0.095211 0.510719
v 0.195521 0.113494 0.510719
v 0.461143 0.456175 0.570323
v 0.869746 0.881733 0.478539
v -0.706959 0.755843 0.570324
v 0.611416 0.721765 0.570324
v -0.910652 0.770229 0.006580
v -0.836939 0.811303 0.422939
vt 0.483760 0.708393
vt 0.483760 1.000000
vt 1.000000 1.000000
vt 1.000000 0.708393
vt 1.000000 0.178719
vt 1.000000 0.178719
vt 1.000000 0.000000
vt 1.000000 0.000000
vt 1.000000 0.178719
vt 1.000000 0.000000
vt 1.000000 0.178719
vt 1.000000 0.000000
vt 1.000000 0.178719
vt 1.000000 0.000000
vt 1.000000 0.178719
vt 1.000000 0.000000
vt 1.000000 0.178719
vt 1.000000 0.000000
vt 1.000000 0.178719
vt 1.000000 0.178719
vt 1.000000 0.000000
vt 1.000000 0.000000
vt 0.000000 0.708393
vt 0.000000 1.000000
vt 0.483760 0.708393
vt 1.000000 0.708393
vt 1.000000 1.000000
vt 0.483760 1.000000
vt 1.000000 0.178719
vt 1.000000 0.000000
vt 1.000000 0.000000
vt 1.000000 0.178719
vt 1.000000 0.000000
vt 1.000000 0.178719
vt 1.000000 0.000000
vt 1.000000 0.178719
vt 1.000000 0.000000
vt 1.000000 0.178719
vt 1.000000 0.000000
vt 1.000000 0.178719
vt 1.000000 0.000000
vt 1.000000 0.178719
vt 1.000000 0.178719
vt 1.000000 0.000000
vt 1.000000 0.000000
vt 1.000000 0.178719
vt 0.000000 0.708393
vt 0.000000 1.000000
vt 0.000000 0.000000
vt 0.483760 0.000000
vt 0.483760 0.000000
vt 0.000000 0.000000
vt 1.000000 1.000000
vt 1.000000 1.000000
vt 1.000000 1.000000
vt 1.000000 1.000000
vt 1.000000 1.000000
vt 1.000000 1.000000
vt 1.000000 1.000000
vt 1.000000 1.000000
vt 1.000000 1.000000
vt 1.000000 1.000000
vt 1.000000 1.000000
vt 1.000000 1.000000
vt 1.000000 1.000000
vt 1.000000 1.000000
vt 1.000000 1.000000
vt 1.000000 1.000000
vt 1.000000 0.708393
vt 1.000000 0.708393
vt 0.000000 0.178719
vt 0.000000 0.178719
vt 1.000000 0.708393
vt 1.000000 0.708393
vt 0.483760 0.178719
vt 1.000000 0.708393
vt 1.000000 0.708393
vt 1.000000 0.708393
vt 1.000000 0.708393
vt 1.000000 0.708393
vt 1.000000 0.708393
vt 1.000000 0.708393
vt 0.483760 0.178719
vt 1.000000 0.708393
vt 1.000000 0.708393
vt 1.000000 0.708393
vt 1.000000 0.708393
vt 1.000000 0.708393
vn 0.1501 0.1898 -0.9703
vn -0.3119 -0.1594 -0.9366
vn -0.2281 -0.2019 -0.9525
vn -0.1114 -0.2327 -0.9661
vn 0.1034 -0.2191 -0.9702
vn 0.2021 -0.1808 -0.9625
vn 0.2712 -0.1445 -0.9516
vn 0.6014 0.0516 -0.7973
vn -0.2038 0.5049 -0.8388
vn 0.3689 -0.0900 -0.9251
vn 0.2646 0.2893 0.9199
vn -0.4402 -0.2249 0.8693
vn -0.3461 -0.3063 0.8868
vn -0.1858 -0.3881 0.9027
vn 0.1980 -0.4195 0.8859
vn 0.3994 -0.3574 0.8442
vn 0.5371 -0.2862 0.7935
vn 0.8875 0.1798 0.4242
vn -0.3274 0.7445 0.5818
vn 0.7068 -0.1725 0.6860
vn -0.9976 -0.0689 -0.0111
vn -0.2813 0.9595 -0.0163
vn -0.9173 0.3983 0.0000
vn -0.4087 -0.9127 0.0000
vn 0.6366 0.7712 -0.0000
vn 0.9658 0.2594 0.0000
vn -0.8920 -0.4521 0.0000
vn 0.8852 -0.4652 0.0000
vn 0.9814 -0.1919 0.0000
vn 0.8630 0.5052 -0.0000
vn -0.8112 0.5848 -0.0000
vn 0.4017 -0.9158 -0.0000
vn -0.1818 0.9833 0.0092
vn 0.3286 0.9425 -0.0607
vn -0.8907 0.4543 -0.0154
vn -0.9683 0.2497 -0.0000
vn -0.7419 -0.6705 0.0000
vn 0.9934 0.1151 0.0000
vn -0.9746 -0.2240 0.0000
vn 0.9777 0.2100 0.0000
vn -0.8158 0.5784 -0.0000
vn 0.7385 -0.6743 0.0000
vn -0.6441 0.7649 -0.0044
vn 0.8142 0.5805 -0.0094
vn -0.0454 0.0196 0.9988
vn -0.7110 0.1767 0.6806
vn -0.0571 0.3184 0.9462
vn -0.1159 0.0055 0.9932
vn -0.1214 0.0968 0.9879
vn 0.0739 0.1376 0.9877
vn 0.0311 0.0456 0.9985
vn 0.0451 0.0350 0.9984
vn 0.0504 0.0267 0.9984
vn -0.5343 -0.1799 0.8260
vn -0.0638 0.0669 -0.9957
vn -0.6552 0.1619 -0.7379
vn -0.1603 0.0621 -0.9851
vn -0.0126 0.0310 -0.9994
vn 0.0319 0.0053 -0.9995
vn 0.0270 -0.0304 -0.9992
vn -0.0947 0.0161 -0.9954
vn 0.0698 0.0095 -0.9975
vn 0.0064 -0.0043 -1.0000
vn -0.4129 -0.1391 -0.9001
vn 0.1916 0.1020 -0.9762
vn 0.2294 0.0188 -0.9732
vn 0.0345 0.1980 -0.9796
vn -0.4307 0.2593 -0.8644
vn -0.2971 0.1990 -0.9339
vn -0.2002 0.1744 -0.9641
vn -0.1130 0.0907 -0.9894
vn -0.1688 0.1340 -0.9765
vn 0.2992 0.1697 0.9390
vn 0.3407 0.1611 0.9263
vn 0.3698 0.2260 0.9012
vn -0.0076 0.2410 0.9705
vn -0.2270 0.1311 0.9650
vn -0.3329 0.1547 0.9302
vn -0.0600 0.5211 0.8514
vn -0.3922 0.2502 0.8852
vn -0.6350 0.7702 0.0598
vn 0.7615 0.6476 -0.0264
vn -0.4149 0.5781 0.7027
vn 0.0557 0.0400 0.9976
vn -0.4105 0.4151 -0.8119
vn -0.0005 0.0254 -0.9997
usemtl Material.001
s off
f 75/1/1 20/2/1 4/3/1 67/4/1
f 46/5/2 47/6/2 5/7/2 2/8/2
f 47/6/3 48/9/3 7/10/3 5/7/3
f 48/9/4 49/11/4 9/12/4 7/10/4
f 49/11/5 50/13/5 11/14/5 9/12/5
f 50/13/6 51/15/6 13/16/6 11/14/6
f 51/15/7 52/17/7 15/18/7 13/16/7
f 55/19/8 53/20/8 17/21/8 21/22/8
f 87/23/9 3/24/9 20/2/9 75/1/9
f 52/17/10 55/19/10 21/22/10 15/18/10
f 85/25/11 77/26/11 27/27/11 28/28/11
f 57/29/12 26/30/12 29/31/12 58/32/12
f 58/32/13 29/31/13 31/33/13 59/34/13
f 59/34/14 31/33/14 33/35/14 60/36/14
f 60/36/15 33/35/15 35/37/15 61/38/15
f 61/38/16 35/37/16 37/39/16 62/40/16
f 62/40/17 37/39/17 39/41/17 63/42/17
f 66/43/18 43/44/18 41/45/18 64/46/18
f 88/47/19 85/25/19 28/28/19 23/48/19
f 63/42/20 39/41/20 43/44/20 66/43/20
f 1/49/21 19/50/21 25/51/21 24/52/21
f 20/2/22 3/24/22 23/48/22 28/28/22
f 14/53/23 12/54/23 36/55/23 38/56/23
f 7/10/24 9/12/24 33/35/24 31/33/24
f 4/3/25 20/2/25 28/28/25 27/27/25
f 10/57/26 8/58/26 32/59/26 34/60/26
f 2/8/27 5/7/27 29/31/27 26/30/27
f 13/16/28 15/18/28 39/41/28 37/39/28
f 15/18/29 21/22/29 43/44/29 39/41/29
f 6/61/30 4/3/30 27/27/30 30/62/30
f 16/63/31 14/53/31 38/56/31 40/64/31
f 9/12/32 11/14/32 35/37/32 33/35/32
f 18/65/33 22/66/33 44/67/33 42/68/33
f 74/69/34 18/65/34 42/68/34 84/70/34
f 45/71/35 1/49/35 24/52/35 56/72/35
f 12/54/36 10/57/36 34/60/36 36/55/36
f 5/7/37 7/10/37 31/33/37 29/31/37
f 21/22/38 17/21/38 41/45/38 43/44/38
f 19/50/39 2/8/39 26/30/39 25/51/39
f 8/58/40 6/61/40 30/62/40 32/59/40
f 22/66/41 16/63/41 40/64/41 44/67/41
f 11/14/42 13/16/42 37/39/42 35/37/42
f 87/23/43 45/71/43 56/72/43 88/47/43
f 17/21/44 53/20/44 64/46/44 41/45/44
f 83/73/45 63/42/45 66/43/45 86/74/45
f 24/52/46 25/51/46 65/75/46 56/72/46
f 86/74/47 66/43/47 64/46/47 84/70/47
f 82/76/48 62/40/48 63/42/48 83/73/48
f 81/77/49 61/38/49 62/40/49 82/76/49
f 80/78/50 60/36/50 61/38/50 81/77/50
f 79/79/51 59/34/51 60/36/51 80/78/51
f 78/80/52 58/32/52 59/34/52 79/79/52
f 77/26/53 57/29/53 58/32/53 78/80/53
f 25/51/54 26/30/54 57/29/54 65/75/54
f 73/81/55 76/82/55 55/19/55 52/17/55
f 1/49/56 45/71/56 54/83/56 19/50/56
f 76/82/57 74/69/57 53/20/57 55/19/57
f 72/84/58 73/81/58 52/17/58 51/15/58
f 71/85/59 72/84/59 51/15/59 50/13/59
f 70/86/60 71/85/60 50/13/60 49/11/60
f 69/87/61 70/86/61 49/11/61 48/9/61
f 68/88/62 69/87/62 48/9/62 47/6/62
f 67/4/63 68/88/63 47/6/63 46/5/63
f 19/50/64 54/83/64 46/5/64 2/8/64
f 4/3/65 6/61/65 68/88/65 67/4/65
f 6/61/66 8/58/66 69/87/66 68/88/66
f 8/58/67 10/57/67 70/86/67 69/87/67
f 10/57/68 12/54/68 71/85/68 70/86/68
f 12/54/69 14/53/69 72/84/69 71/85/69
f 14/53/70 16/63/70 73/81/70 72/84/70
f 22/66/71 18/65/71 74/69/71 76/82/71
f 16/63/72 22/66/72 76/82/72 73/81/72
f 27/27/73 77/26/73 78/80/73 30/62/73
f 30/62/74 78/80/74 79/79/74 32/59/74
f 32/59/75 79/79/75 80/78/75 34/60/75
f 34/60/76 80/78/76 81/77/76 36/55/76
f 36/55/77 81/77/77 82/76/77 38/56/77
f 38/56/78 82/76/78 83/73/78 40/64/78
f 44/67/79 86/74/79 84/70/79 42/68/79
f 40/64/80 83/73/80 86/74/80 44/67/80
f 3/24/81 87/23/81 88/47/81 23/48/81
f 53/20/82 74/69/82 84/70/82 64/46/82
f 56/72/83 65/75/83 85/25/83 88/47/83
f 65/75/84 57/29/84 77/26/84 85/25/84
f 45/71/85 87/23/85 75/1/85 54/83/85
f 54/83/86 75/1/86 67/4/86 46/5/86
